<svg xmlns="http://www.w3.org/2000/svg" width="194" height="56" viewBox="0 0 194 56">
    <g fill="none">
        <path fill="#FFF" d="M193.397 50.177c0 1.476-.586 2.891-1.63 3.934-1.042 1.044-2.457 1.629-3.932 1.627H5.825c-3.073.004-5.566-2.486-5.57-5.561V5.824C.26 2.748 2.751.256 5.825.255h182.009c1.475 0 2.89.587 3.933 1.632 1.043 1.044 1.63 2.46 1.63 3.937v44.353z"/>
        <path fill="#161817" d="M39.915 28.978c-.034-3.795 3.105-5.642 3.248-5.728-1.777-2.595-4.533-2.95-5.501-2.977-2.314-.244-4.56 1.386-5.738 1.386-1.203 0-3.018-1.363-4.975-1.323-2.517.039-4.873 1.498-6.165 3.764-2.666 4.62-.677 11.41 1.877 15.145 1.278 1.83 2.77 3.871 4.725 3.8 1.912-.078 2.626-1.22 4.933-1.22 2.286 0 2.957 1.22 4.95 1.173 2.052-.031 3.344-1.837 4.577-3.682 1.476-2.096 2.07-4.161 2.093-4.267-.047-.017-3.984-1.522-4.024-6.07zM36.15 17.816c1.028-1.287 1.732-3.039 1.536-4.816-1.488.066-3.35 1.03-4.42 2.29-.95 1.109-1.796 2.927-1.578 4.637 1.672.125 3.389-.844 4.462-2.111zM77.26 43.632h-3.1l-1.699-5.393h-5.904l-1.618 5.393H61.92l5.85-18.36h3.614l5.876 18.36zm-5.311-7.656l-1.536-4.794c-.163-.49-.468-1.643-.916-3.459h-.055c-.18.781-.468 1.935-.863 3.46l-1.51 4.793h4.88zm20.328.874c0 2.251-.605 4.03-1.816 5.337-1.084 1.163-2.432 1.744-4.039 1.744-1.735 0-2.983-.625-3.741-1.877V49H79.77V34.744c0-1.414-.037-2.864-.108-4.351h2.56l.163 2.098h.054c.971-1.58 2.444-2.371 4.421-2.371 1.546 0 2.836.616 3.869 1.851 1.03 1.238 1.548 2.863 1.548 4.879zm-2.966.107c0-1.288-.286-2.35-.863-3.188-.629-.87-1.474-1.307-2.534-1.307-.718 0-1.37.243-1.954.722-.584.483-.966 1.113-1.145 1.894-.08.292-.125.593-.135.896v2.208c0 .962.292 1.775.876 2.44.585.662 1.344.994 2.278.994 1.096 0 1.95-.429 2.56-1.28.612-.854.917-1.98.917-3.379zm18.036-.107c0 2.251-.605 4.03-1.816 5.337-1.086 1.163-2.432 1.744-4.04 1.744-1.736 0-2.984-.625-3.741-1.877V49h-2.912V34.744c0-1.414-.036-2.864-.107-4.351h2.56l.162 2.098h.055c.97-1.58 2.443-2.371 4.421-2.371 1.544 0 2.835.616 3.87 1.851 1.029 1.238 1.548 2.863 1.548 4.879zm-2.967.107c0-1.288-.288-2.35-.864-3.188-.63-.87-1.472-1.307-2.532-1.307-.718 0-1.37.243-1.956.722-.585.483-.966 1.113-1.145 1.894-.088.364-.136.661-.136.896v2.208c0 .962.293 1.775.875 2.44.584.66 1.344.994 2.28.994 1.098 0 1.951-.429 2.56-1.28.612-.854.918-1.98.918-3.379zm19.816 1.525c0 1.563-.54 2.833-1.615 3.814-1.183 1.071-2.834 1.608-4.95 1.608-1.955 0-3.523-.381-4.705-1.144l.673-2.452c1.277.765 2.679 1.145 4.205 1.145 1.098 0 1.952-.25 2.56-.749.61-.5.92-1.167.92-2 0-.747-.256-1.372-.757-1.88-.504-.508-1.337-.982-2.507-1.416-3.181-1.199-4.773-2.952-4.773-5.26 0-1.506.562-2.74 1.685-3.704 1.122-.963 2.61-1.444 4.462-1.444 1.653 0 3.03.291 4.125.872l-.73 2.398c-1.03-.563-2.192-.845-3.492-.845-1.027 0-1.833.256-2.409.763-.484.454-.73 1.007-.73 1.664 0 .724.28 1.326.837 1.798.483.434 1.365.908 2.64 1.415 1.565.638 2.715 1.38 3.45 2.233.742.852 1.11 1.916 1.11 3.184zm9.65-5.882h-3.21v6.428c0 1.635.566 2.45 1.699 2.45.52 0 .952-.044 1.293-.136l.08 2.233c-.573.217-1.328.326-2.263.326-1.15 0-2.048-.355-2.697-1.064-.646-.709-.97-1.897-.97-3.569v-6.673h-1.912v-2.208h1.911v-2.424l2.86-.871v3.295h3.208V32.6zm14.448 4.303c0 2.035-.577 3.706-1.726 5.013-1.203 1.345-2.803 2.015-4.798 2.015-1.925 0-3.456-.644-4.597-1.931-1.142-1.29-1.713-2.915-1.713-4.876 0-2.051.59-3.732 1.766-5.038 1.178-1.308 2.765-1.962 4.76-1.962 1.922 0 3.466.646 4.635 1.934 1.117 1.25 1.673 2.864 1.673 4.845zm-3.018.068c0-1.213-.26-2.253-.78-3.123-.61-1.052-1.484-1.577-2.616-1.577-1.166 0-2.06.525-2.669 1.577-.522.87-.78 1.928-.78 3.178 0 1.214.258 2.257.78 3.125.63 1.051 1.507 1.577 2.645 1.577 1.113 0 1.985-.537 2.616-1.603.535-.891.804-1.939.804-3.154zm12.484-3.991c-.303-.055-.61-.083-.918-.082-1.024 0-1.816.39-2.373 1.173-.483.69-.726 1.562-.726 2.614v6.947h-2.911v-9.07c.003-1.39-.026-2.78-.085-4.168h2.536l.106 2.533h.08c.31-.87.793-1.572 1.456-2.098.608-.46 1.346-.708 2.104-.71.27 0 .512.02.728.055l.003 2.806zm13.019 3.406c.007.447-.028.894-.107 1.334h-8.733c.033 1.308.456 2.31 1.267 3 .736.615 1.688.924 2.857.924 1.293 0 2.473-.207 3.534-.625l.456 2.04c-1.24.547-2.704.818-4.393.818-2.032 0-3.626-.604-4.787-1.81-1.158-1.207-1.738-2.83-1.738-4.861 0-1.995.54-3.658 1.62-4.984 1.13-1.415 2.658-2.123 4.58-2.123 1.888 0 3.318.708 4.289 2.123.769 1.122 1.155 2.513 1.155 4.164zm-2.776-.763c.02-.873-.17-1.625-.565-2.261-.504-.82-1.28-1.228-2.319-1.228-.951 0-1.727.399-2.317 1.199-.484.636-.772 1.4-.861 2.287l6.062.003zM65.012 18.93c-.81 0-1.51-.042-2.093-.112V9.61c.815-.132 1.64-.197 2.465-.195 3.338 0 4.876 1.722 4.876 4.528 0 3.238-1.816 4.987-5.248 4.987zm.489-8.334c-.45 0-.834.028-1.152.097v7c.172.029.502.042.966.042 2.188 0 3.433-1.305 3.433-3.75 0-2.18-1.126-3.39-3.247-3.39zM75.051 19c-1.882 0-3.101-1.473-3.101-3.472 0-2.084 1.245-3.57 3.208-3.57 1.854 0 3.1 1.403 3.1 3.46 0 2.11-1.284 3.582-3.207 3.582zm.055-5.945c-1.034 0-1.696 1.013-1.696 2.43 0 1.39.676 2.403 1.682 2.403 1.006 0 1.682-1.084 1.682-2.432 0-1.374-.662-2.401-1.668-2.401zm13.882-.958l-2.014 6.75h-1.312l-.834-2.931c-.208-.717-.38-1.445-.518-2.18h-.027c-.105.736-.305 1.473-.516 2.18l-.888 2.93h-1.326l-1.895-6.749h1.47l.73 3.209c.172.764.317 1.486.437 2.167h.027c.105-.568.277-1.278.53-2.153l.915-3.221h1.166l.875 3.153c.212.764.384 1.514.518 2.222h.038c.093-.694.239-1.43.437-2.222l.782-3.153 1.405-.002zm7.415 6.75h-1.431V14.97c0-1.194-.437-1.792-1.299-1.792-.848 0-1.43.764-1.43 1.653v4.015H90.81v-4.82c0-.597-.014-1.237-.053-1.931h1.259l.067 1.042h.04c.384-.722 1.165-1.18 2.04-1.18 1.352 0 2.24 1.084 2.24 2.847l-.001 4.042zm3.946 0h-1.433V9h1.433v9.847zm5.217.153c-1.88 0-3.1-1.473-3.1-3.472 0-2.084 1.245-3.57 3.205-3.57 1.856 0 3.101 1.403 3.101 3.46.002 2.11-1.285 3.582-3.206 3.582zm.053-5.945c-1.033 0-1.695 1.013-1.695 2.43 0 1.39.677 2.403 1.68 2.403 1.008 0 1.683-1.084 1.683-2.432.001-1.374-.66-2.401-1.668-2.401zm8.795 5.792l-.103-.777h-.039c-.437.625-1.074.93-1.883.93-1.153 0-1.973-.847-1.973-1.987 0-1.665 1.378-2.527 3.764-2.527v-.125c0-.888-.45-1.334-1.337-1.334-.635 0-1.192.168-1.683.501l-.29-.986c.595-.389 1.338-.584 2.21-.584 1.683 0 2.532.93 2.532 2.793v2.486c0 .681.029 1.21.093 1.611l-1.29-.001zm-.196-3.362c-1.59 0-2.387.404-2.387 1.361 0 .708.41 1.055.982 1.055.727 0 1.405-.583 1.405-1.374v-1.042zm8.343 3.362l-.067-1.084h-.04c-.41.82-1.102 1.237-2.067 1.237-1.553 0-2.702-1.431-2.702-3.445 0-2.111 1.192-3.598 2.82-3.598.86 0 1.471.305 1.815.917h.029V9h1.432v8.028c0 .652.015 1.264.054 1.819h-1.274zm-.212-3.972c0-.944-.597-1.75-1.507-1.75-1.061 0-1.71.986-1.71 2.374 0 1.361.673 2.293 1.68 2.293.9 0 1.537-.82 1.537-1.792v-1.125zM132.863 19c-1.88 0-3.1-1.473-3.1-3.472 0-2.084 1.246-3.57 3.207-3.57 1.855 0 3.1 1.403 3.1 3.46.002 2.11-1.283 3.582-3.207 3.582zm.053-5.945c-1.032 0-1.694 1.013-1.694 2.43 0 1.39.676 2.403 1.68 2.403 1.008 0 1.683-1.084 1.683-2.432.003-1.374-.66-2.401-1.669-2.401zm10.85 5.792h-1.432V14.97c0-1.194-.437-1.792-1.299-1.792-.848 0-1.43.764-1.43 1.653v4.015h-1.432v-4.82c0-.597-.013-1.237-.053-1.931h1.259l.067 1.042h.04c.383-.722 1.166-1.181 2.04-1.181 1.351 0 2.24 1.083 2.24 2.847v4.043zm9.628-5.625h-1.574V16.5c0 .834.275 1.25.833 1.25.252 0 .464-.028.635-.07l.04 1.14c-.278.111-.65.167-1.111.167-1.128 0-1.802-.653-1.802-2.361v-3.404h-.94v-1.125h.94v-1.236l1.405-.446v1.68h1.574v1.127zm7.576 5.625h-1.43V15c0-1.208-.436-1.82-1.299-1.82-.741 0-1.432.529-1.432 1.598v4.069h-1.43V9h1.43v4.055h.029c.45-.736 1.103-1.098 1.936-1.098 1.363 0 2.196 1.11 2.196 2.875v4.015zm7.76-3.014h-4.294c.028 1.278.835 2 2.03 2 .634 0 1.219-.113 1.735-.32l.223 1.042c-.61.278-1.326.416-2.16.416-2.015 0-3.207-1.334-3.207-3.402 0-2.07 1.221-3.625 3.045-3.625 1.646 0 2.678 1.278 2.678 3.209.01.228-.007.456-.05.68zm-1.311-1.07c0-1.041-.501-1.777-1.416-1.777-.822 0-1.472.75-1.565 1.778h2.98z"/>
    </g>
</svg>
