<svg xmlns="http://www.w3.org/2000/svg" width="183" height="56" viewBox="0 0 183 56">
    <g fill="none" fill-rule="evenodd">
        <path fill="#FFF" d="M4.003 0h174.68c2.21 0 4.002 1.79 4.002 4v48c0 2.21-1.792 4-4.003 4H4.002C1.793 56 0 54.21 0 52V4c0-2.21 1.792-4 4.003-4z"/>
        <g>
            <g fill="#161817">
                <path d="M4.02 6.703c-.61 0-1.172-.146-1.686-.439-.514-.292-.922-.694-1.224-1.205C.81 4.55.658 3.98.658 3.352s.15-1.196.452-1.707c.302-.51.71-.912 1.224-1.205C2.848.148 3.41.001 4.02.001c.484 0 .935.087 1.354.26.418.173.768.415 1.049.726l-.7.699c-.209-.233-.458-.412-.748-.538-.29-.125-.611-.188-.964-.188-.413 0-.798.099-1.157.296-.358.197-.645.478-.86.842-.216.364-.323.782-.323 1.254s.107.89.323 1.255c.215.364.502.645.86.842.359.197.747.296 1.166.296.382 0 .702-.057.96-.17.256-.114.486-.266.69-.458.131-.131.243-.295.336-.492.093-.197.154-.413.184-.645H4.01v-.896h3.13c.03.167.045.34.045.52 0 .405-.063.795-.188 1.168-.126.374-.326.698-.601.973-.604.639-1.396.958-2.376.958zM8.893.145h3.9v.958H9.899v1.774h2.609v.95h-2.61v1.774h2.897v.959h-3.9V.145zm6.999.958h-1.793V.145h4.59v.958h-1.793V6.56h-1.004V1.103zm6.967-.958h1.004V6.56H22.86V.145zm4.318.958h-1.794V.145h4.591v.958h-1.793V6.56h-1.004V1.103zm9.791 5.6c-.621 0-1.186-.147-1.694-.443-.508-.296-.907-.7-1.197-1.214-.29-.514-.435-1.078-.435-1.694 0-.615.145-1.178.435-1.689.29-.51.689-.915 1.197-1.214.508-.298 1.073-.448 1.694-.448.622 0 1.185.15 1.69.448.506.299.905.704 1.197 1.214.293.511.44 1.074.44 1.69 0 .615-.145 1.18-.435 1.693-.29.513-.689.918-1.197 1.214-.508.296-1.073.443-1.695.443zm0-.958c.425 0 .813-.102 1.166-.305s.63-.485.834-.847c.203-.361.305-.775.305-1.24 0-.467-.102-.88-.305-1.242-.203-.361-.481-.643-.834-.846-.353-.203-.741-.305-1.166-.305-.424 0-.813.102-1.165.305-.353.203-.632.485-.839.846-.206.362-.309.775-.309 1.241 0 .466.103.88.31 1.241.206.362.485.644.838.847.352.203.74.305 1.165.305zm5.026-5.6h1.193l2.869 4.668h.054l-.054-1.237V.145h.995V6.56h-1.049L42.99 1.65h-.053l.053 1.236V6.56h-.995V.145zM7.146 29.265c-1.296 0-2.49-.311-3.582-.933-1.093-.622-1.96-1.476-2.601-2.561s-.962-2.295-.962-3.627c0-1.333.32-2.542.962-3.627.641-1.086 1.508-1.94 2.6-2.561 1.093-.622 2.287-.933 3.583-.933 1.029 0 1.988.184 2.877.552.889.368 1.632.882 2.229 1.542l-1.486 1.485c-.445-.495-.975-.876-1.591-1.142-.616-.267-1.299-.4-2.048-.4-.877 0-1.696.21-2.458.628-.762.42-1.372 1.016-1.83 1.79-.457.774-.685 1.663-.685 2.666 0 1.002.228 1.891.686 2.665.457.775 1.067 1.371 1.829 1.79.762.419 1.588.628 2.477.628.813 0 1.492-.12 2.038-.361.547-.242 1.036-.565 1.467-.971.28-.28.518-.629.715-1.048.197-.419.327-.875.39-1.37h-4.63v-1.905h6.65c.064.356.095.724.095 1.105 0 .863-.133 1.691-.4 2.485-.266.793-.692 1.481-1.276 2.065-1.283 1.359-2.966 2.038-5.05 2.038zm13.394 0c-.978 0-1.854-.226-2.63-.676-.774-.45-1.377-1.07-1.81-1.857-.431-.787-.647-1.663-.647-2.627 0-.965.216-1.84.648-2.628.432-.787 1.035-1.406 1.81-1.856.775-.45 1.65-.676 2.629-.676.978 0 1.854.228 2.63.685.774.457 1.377 1.08 1.81 1.866.431.787.647 1.657.647 2.609 0 .964-.216 1.84-.648 2.627-.432.787-1.035 1.406-1.81 1.857-.775.45-1.651.676-2.629.676zm0-1.923c.533 0 1.029-.13 1.486-.39.457-.26.823-.635 1.096-1.124.273-.489.41-1.063.41-1.723 0-.66-.137-1.231-.41-1.714-.273-.482-.639-.853-1.096-1.114-.457-.26-.953-.39-1.486-.39s-1.029.13-1.486.39c-.457.26-.823.632-1.096 1.114-.273.483-.41 1.054-.41 1.714 0 .66.137 1.234.41 1.723.273.489.639.863 1.096 1.123.457.26.953.39 1.486.39zm11.565 1.923c-.978 0-1.854-.226-2.63-.676-.774-.45-1.377-1.07-1.81-1.857-.431-.787-.647-1.663-.647-2.627 0-.965.216-1.84.648-2.628.432-.787 1.035-1.406 1.81-1.856.775-.45 1.651-.676 2.63-.676.977 0 1.854.228 2.628.685.775.457 1.379 1.08 1.81 1.866.432.787.648 1.657.648 2.609 0 .964-.216 1.84-.647 2.627-.432.787-1.036 1.406-1.81 1.857-.775.45-1.652.676-2.63.676zm0-1.923c.534 0 1.029-.13 1.486-.39.458-.26.823-.635 1.096-1.124.273-.489.41-1.063.41-1.723 0-.66-.137-1.231-.41-1.714-.273-.482-.638-.853-1.096-1.114-.457-.26-.952-.39-1.486-.39-.533 0-1.029.13-1.486.39-.457.26-.822.632-1.096 1.114-.273.483-.41 1.054-.41 1.714 0 .66.137 1.234.41 1.723.274.489.639.863 1.096 1.123.457.26.953.39 1.486.39zM43.5 33.377c-1.194 0-2.182-.273-2.963-.818-.781-.546-1.305-1.194-1.572-1.943l1.963-.818c.203.507.53.917.98 1.228.452.31.982.466 1.592.466.889 0 1.584-.263 2.086-.79.502-.527.753-1.266.753-2.218v-.895h-.115c-.317.457-.74.816-1.267 1.076-.527.26-1.133.39-1.82.39-.812 0-1.568-.21-2.266-.628-.7-.419-1.255-1.012-1.668-1.78-.412-.768-.619-1.647-.619-2.637s.207-1.87.62-2.637c.412-.768.968-1.365 1.667-1.79.698-.425 1.454-.638 2.267-.638.673 0 1.276.133 1.81.4.533.266.959.628 1.276 1.085h.115v-1.18h2v9.177c0 1.053-.203 1.951-.61 2.694-.406.743-.974 1.304-1.705 1.685-.73.38-1.571.571-2.524.571zm.019-6.226c.508 0 .978-.124 1.41-.371.432-.248.775-.61 1.029-1.085.254-.476.38-1.038.38-1.685 0-.99-.27-1.762-.809-2.314-.54-.552-1.21-.828-2.01-.828-.52 0-.997.124-1.43.371-.43.248-.774.606-1.028 1.076-.254.47-.381 1.035-.381 1.695 0 .66.127 1.225.381 1.694.254.47.597.828 1.029 1.076.432.247.908.371 1.429.371zm7.278-11.824h2.096V28.96h-2.096V15.327zm8.993 13.938c-.952 0-1.807-.222-2.562-.667-.756-.444-1.347-1.056-1.772-1.837-.426-.78-.639-1.66-.639-2.637 0-.927.207-1.787.62-2.58.412-.793.987-1.425 1.724-1.895s1.575-.704 2.515-.704c.978 0 1.826.216 2.543.647.718.432 1.264 1.022 1.639 1.771.375.749.562 1.593.562 2.532 0 .178-.019.4-.057.667h-7.45c.076.901.397 1.596.962 2.085.566.488 1.223.733 1.972.733.597 0 1.115-.137 1.553-.41.438-.273.79-.644 1.058-1.114l1.772.838c-.458.8-1.055 1.428-1.791 1.885-.737.457-1.62.686-2.649.686zm2.496-6.303c-.025-.342-.133-.682-.324-1.018-.19-.337-.48-.619-.867-.848-.387-.228-.86-.342-1.42-.342-.672 0-1.24.2-1.704.6-.464.4-.785.936-.963 1.608h5.278zm8.84-7.635h4.726c.8 0 1.54.178 2.22.533.68.356 1.219.85 1.62 1.486.4.634.6 1.351.6 2.151 0 .8-.2 1.517-.6 2.152-.401.634-.94 1.13-1.62 1.485-.68.355-1.42.533-2.22.533H73.26v5.293h-2.134V15.327zm4.764 6.322c.47 0 .876-.105 1.22-.315.342-.209.603-.479.78-.809.178-.33.267-.672.267-1.028 0-.355-.089-.698-.266-1.028-.178-.33-.439-.597-.782-.8-.343-.203-.749-.304-1.219-.304h-2.63v4.284h2.63zm6.23-6.322h2.096V28.96H82.12V15.327zm7.602 13.938c-.698 0-1.32-.137-1.867-.41-.546-.273-.971-.66-1.276-1.161-.305-.502-.458-1.07-.458-1.704 0-1.003.378-1.796 1.134-2.38.756-.584 1.712-.876 2.868-.876.571 0 1.086.054 1.543.162.457.108.82.225 1.086.352v-.495c0-.597-.222-1.082-.667-1.457-.445-.374-1.016-.561-1.715-.561-.495 0-.962.108-1.4.323-.438.216-.79.514-1.058.895l-1.467-1.123c.432-.597.991-1.06 1.677-1.39.686-.33 1.448-.495 2.286-.495 1.41 0 2.496.346 3.258 1.038.763.691 1.144 1.666 1.144 2.922v6.055H92.75v-1.161h-.095c-.28.418-.674.768-1.182 1.047-.508.279-1.092.419-1.753.419zm.362-1.733c.509 0 .966-.12 1.372-.362.407-.24.724-.565.953-.97.229-.407.343-.845.343-1.315-.292-.165-.632-.298-1.02-.4-.387-.1-.79-.152-1.21-.152-.787 0-1.365.156-1.733.467-.368.31-.553.714-.553 1.209 0 .444.172.809.515 1.095.343.285.787.428 1.333.428zm9.984.895l-4.039-9.177h2.344l2.743 6.606h.076l2.668-6.606h2.305l-6.001 13.823h-2.21l2.114-4.646z" transform="translate(16.01 10) translate(43.905 1)"/>
            </g>
            <g>
                <g fill="#32BBFF">
                    <path d="M25.173 12.294C21.007 9.964 14.32 6.226 3.948.422c-.7-.462-1.504-.522-2.2-.287L19.545 17.92l5.629-5.625z" transform="translate(16.01 10)"/>
                    <path d="M1.749.135c-.13.044-.258.097-.379.162C.603.712.038 1.51.038 2.52v30.797c0 1.01.564 1.809 1.332 2.223.121.065.248.118.378.162L19.544 17.92 1.75.135z" transform="translate(16.01 10)"/>
                    <path d="M19.544 17.919L1.748 35.702c.695.237 1.5.181 2.2-.287 10.058-5.628 16.67-9.323 20.884-11.672l.346-.194-5.634-5.63z" transform="translate(16.01 10)"/>
                </g>
                <path fill="#2C9FD9" d="M.038 17.919v15.398c0 1.01.564 1.809 1.332 2.223.121.065.248.118.378.162L19.544 17.92H.038z" transform="translate(16.01 10)"/>
                <path fill="#29CC5E" d="M3.948.422C3.118-.126 2.138-.11 1.37.297l17.904 17.891 5.899-5.894C21.007 9.964 14.32 6.226 3.948.422z" transform="translate(16.01 10)"/>
                <path fill="#D93F21" d="M19.274 17.649L1.37 35.54c.768.408 1.747.431 2.578-.125 10.058-5.628 16.67-9.323 20.884-11.672l.346-.194-5.904-5.9z" transform="translate(16.01 10)"/>
                <path fill="#FFD500" d="M32.604 17.919c0-.854-.431-1.715-1.285-2.192 0 0-1.597-.89-6.492-3.627l-5.823 5.819 5.828 5.824c4.842-2.717 6.487-3.632 6.487-3.632.854-.478 1.285-1.34 1.285-2.192z" transform="translate(16.01 10)"/>
                <path fill="#FA0" d="M31.319 20.11c.854-.477 1.285-1.338 1.285-2.191h-13.6l5.828 5.824c4.842-2.716 6.487-3.632 6.487-3.632z" transform="translate(16.01 10)"/>
            </g>
        </g>
    </g>
</svg>
